
<svg id="Layer_1" xmlns="http://www.w3.org/2000/svg" viewBox="0 0 363.84 117.39">
  <defs>
    <style>
      .cls-1 {
        fill: #faedf4;
      }
    </style>
  </defs>
  <path class="cls-1" d="M363.84,58.58c0,6.02-1.8,11.61-3.83,17.25-2.56,7.13-7.62,12.66-13.38,17.73-2.13,1.88-5.14,2.97-7.77,4.38-2.06,1.11-4.29,1.99-6.18,3.28-2.34,1.6-5.1,1.93-7.74,2.67-4.93,1.38-10.25,1.14-15.06,3.16-2.03.85-4.45.95-6.69,1.43-2.98.63-5.94,1.3-8.92,1.92-.88.18-1.78.36-2.68.39-2,.07-3.69.89-5.44,1.61-.37.15-.77.34-1.16.36-3.1.14-6.2.25-9.31.34-1.49.04-2.99-.03-4.49.01-6.75.2-13.5.46-20.26.65-8.57.24-17.15.7-25.72.58-6.35-.09-12.68-.97-19.03-1.49-.55-.04-1.1,0-1.64-.08-1.28-.19-2.55-.48-3.83-.62-2.41-.27-4.82-.51-7.24-.67-6.9-.47-13.85-.61-20.7-1.43-5.11-.61-10.2-1.15-15.34-1.18-4.38-.03-8.77.2-13.16.29-1.8.04-3.65-.22-5.41.05-7.35,1.09-14.78.38-22.13.99-5.91.49-11.79,1.24-17.67,1.93-5.19.61-10.37,1.31-15.56,1.93-2.51.3-5.05.44-7.56.72-4.43.5-8.84,1.11-13.27,1.56-3.2.33-6.41.51-9.62.72-2.06.14-4.18.53-6.18.25-2.9-.41-5.71-1.31-8.54-2.04-.5-.13-.92-.5-1.4-.71-3.16-1.37-6.54-2.45-9.45-4.17-3.1-1.83-5.9-4.12-8.56-6.46-2.36-2.08-4.72-4.3-6.4-6.82-2.54-3.8-4.76-7.82-6.63-11.93-1.51-3.29-2.57-6.8-3.34-10.3-.89-4.04-1.31-8.17-1.81-12.27C.37,59.61.07,56.62,0,53.63c-.09-4.05.66-8.01,1.77-11.95,1.68-5.96,4.2-11.62,7.43-16.99,1.64-2.72,3.72-5.39,6.23-7.48,2.29-1.91,5.43-2.98,8.18-4.45.82-.44,1.51-1.11,2.38-1.41,2.04-.7,4.12-1.31,6.22-1.83,7.28-1.81,14.75-1.59,22.21-1.69,5.33-.07,10.65-.36,15.97-.57,2.46-.1,4.95-.09,7.38-.43,4.45-.62,8.86-1.42,13.27-2.24,5.67-1.05,11.31-2.21,16.98-3.27.82-.15,1.71.02,2.56-.06,1.47-.15,2.92-.43,4.39-.58.84-.08,1.71-.08,2.56,0,1.47.15,2.92.5,4.39.57,6.44.32,12.88.55,19.32.86,4.83.23,9.67.43,14.49.84,3.96.33,7.88.97,11.82,1.42,2.77.32,5.54.72,8.31.82,8.22.3,16.44.58,24.67.65,6.43.06,12.87-.06,19.3-.34,4.66-.21,9.3-.78,13.93-1.28,6.59-.71,13.15-1.59,19.74-2.24,3.92-.39,7.88-.44,11.82-.71,5.85-.39,11.68-.88,17.53-1.24,1.72-.11,3.45.09,5.18.13,2.2.05,4.4.08,6.59.13,4.56.1,9.12.14,13.66.37,1.84.09,3.64.63,5.46.97,2.97.55,6.01.89,8.89,1.71,2.67.77,5.18,2.02,7.73,3.1.98.41,1.85,1.05,2.86,1.38,5.06,1.66,8.45,5.28,12.29,8.35,3.26,2.6,5.42,5.92,7.06,9.54.43.96,1.06,1.84,1.53,2.78.64,1.28,1.17,2.6,1.81,3.88.83,1.68,1.9,3.28,2.54,5.01,1.58,4.27,3.92,8.34,4.33,12.94.24,2.76.68,5.5,1.03,8.26ZM45.01,12.13c-4.05.38-7.54.49-10.92,1.08-4.88.85-9.15,3.11-13.11,5.71-1.98,1.3-3.78,2.96-5.2,4.76-4.88,6.15-8.03,13.07-10.18,20.31-1.04,3.49-1.89,7.17-1.83,10.76.07,4.87,1.08,9.73,1.71,14.59.75,5.85,2.81,11.42,5.55,16.68,2.98,5.7,6.84,10.94,12.13,15.34,5.16,4.29,10.76,7.72,17.39,9.78,4.05,1.26,8.06,2.76,12.52,2.3,4.31-.44,8.63-.89,12.94-1.3,3.91-.37,7.83-.65,11.74-1.01,3.26-.3,6.51-.65,9.76-1.02,3.52-.4,7.02-.89,10.54-1.26,2.83-.3,5.68-.43,8.52-.71,5.1-.5,10.17-1.21,15.28-1.56,4.74-.32,9.5-.3,14.26-.36,4.25-.05,8.5-.05,12.74,0,7.26.08,14.52.21,21.78.32.3,0,.61,0,.91.04,2.8.31,5.6.7,8.41.92,3.75.3,7.51.47,11.27.7,1.88.11,3.83-.02,5.62.4,4.07.95,8.26.7,12.39,1.37,5.79.93,11.82.62,17.75.85,2.13.08,4.25.32,6.37.3,4.57-.04,9.14-.18,13.71-.32,2.31-.07,4.62-.2,6.92-.32,1.09-.06,2.17-.21,3.26-.24,2.72-.07,5.45.02,8.16-.15,5.47-.35,10.94-.81,16.4-1.27,2.96-.25,5.92-.47,8.85-.89,3.24-.47,6.45-1.14,9.66-1.78,2.12-.42,4.22-.95,6.34-1.43,3.68-.83,7.32-1.87,11.05-2.41,2.82-.41,5.11-2.36,8.12-1.99.09.01.19-.13.3-.18,3.32-1.55,6.55-3.29,9.98-4.61,4.46-1.72,8.22-4.31,11.31-7.48,3.53-3.62,6.8-7.49,8.78-12.1,2.47-5.74,4.44-11.6,4.3-17.78-.09-3.86-.71-7.68-2.03-11.5-2.45-7.1-6.09-13.62-10.13-20.02-2.03-3.21-4.31-6.27-7.48-8.72-3.04-2.35-5.91-4.87-8.92-7.26-.65-.51-1.57-.76-2.38-1.1-2.93-1.24-5.76-2.73-8.82-3.63-2.73-.81-5.69-1.1-8.57-1.4-5.01-.52-10.04-1.15-15.07-1.22-8.63-.12-17.27.1-25.91.29-2.99.07-5.98.42-8.97.7-5.37.5-10.73,1.06-16.09,1.57-1.81.17-3.65.18-5.45.42-2.48.33-4.93.97-7.42,1.19-3.99.36-8.01.38-12,.74-2.61.24-5.18.85-7.78,1.23-.64.09-1.33-.04-1.98-.14-.75-.12-1.5-.49-2.22-.44-1.29.08-2.55.54-3.84.59-5.7.25-11.37-.12-17.04-.69-3.32-.33-6.66-.42-10-.59-3.25-.16-6.52-.14-9.75-.45-4.06-.38-8.08-1.15-12.14-1.5-5.44-.47-10.9-.77-16.36-1-6.97-.3-13.94-.59-20.91-.63-4.49-.03-9-.5-13.48.56-2.5.59-5.19.55-7.7,1.13-3.88.9-7.61,2.35-11.51,3.11-3.89.76-7.92,1.02-11.9,1.39-3.27.3-6.56.42-9.83.68-2.17.17-4.33.58-6.5.62-4.63.1-9.26.03-13.31.03Z"/>
</svg>