<?xml version="1.0" encoding="UTF-8"?>
<svg id="Layer_1" data-name="Layer 1" xmlns="http://www.w3.org/2000/svg" viewBox="0 0 1825.87 883.64">
  <defs>
    <style>
      .cls-1 {
        fill: #fce1fe;
        stroke-width: 0px;
      }
    </style>
  </defs>
  <path class="cls-1" d="M157.69,72.9c13.07,0,26.21-.76,39.17.14,36.16,2.53,72.38,2.3,108.59,2.09,23.47-.14,46.93-1,70.41-1.46,17.54-.34,35.1-1.1,52.61-.61,16.41.47,32.88,1.7,49.1,3.7,36.38,4.5,72.56,9.92,108.94,14.45,16.06,1.99,32.35,3.18,48.59,3.93,25.04,1.16,50.14,2.11,75.24,2.26,22.31.14,44.61-.74,66.92-1.46,15.48-.49,30.94-1.31,46.38-2.3,16.56-1.06,33.11-2.3,49.61-3.8,20.9-1.89,41.78-3.96,62.63-6.22,21.81-2.36,43.55-5.15,65.37-7.52,16.28-1.77,32.62-3.22,48.96-4.76,16.65-1.57,33.3-3.21,49.98-4.52,10.5-.82,21.05-1.31,31.58-1.6,23.79-.65,47.59-1.41,71.39-1.47,18.66-.04,37.33.78,55.97,1.48,13.49.52,26.96,1.3,40.41,2.3,18.18,1.34,36.33,2.9,54.45,4.57,21.39,1.96,42.73,4.25,64.14,6.16,11.45,1.02,22.95,1.75,34.45,2.28,11.04.49,22.16,1.06,33.2.71,17.76-.58,35.49-1.85,53.23-2.93,11.65-.71,23.31-1.48,34.94-2.37,11.79-.89,23.53-2.05,35.32-2.93,15.64-1.16,31.38-1.74,46.82.93,12.98,2.25,26.1,4.58,38.42,8.35,9.04,2.77,17.43,7.35,25.08,12.11,12.58,7.86,24.84,16.11,36.31,24.94,16.12,12.41,27.47,27.3,35.61,43.79,4.29,8.69,6.28,17.39,5.75,26.62-.26,4.18.97,8.41.82,12.61-.44,12.27-1.37,24.53-1.77,36.8-.18,5.48.46,10.98.71,16.47.05,1.29.09,2.56.15,3.84.66,14.19,1.26,28.38,2.03,42.56.55,10.21,1.44,20.41,1.94,30.62.79,15.99,1.9,31.98,1.86,47.96-.04,17.66-1.86,35.31-1.66,52.97.22,17.84,1.53,35.66,5.55,53.35,4.78,21.06,8.98,42.21,13,63.37,1.92,10.08,3.21,20.24,4.05,30.41,1.08,13.01,2.15,26.07,1.86,39.09-.24,11.44-1.95,22.89-3.72,34.27-2.3,14.66-5.18,29.26-8.01,43.86-4.29,22.14-13.49,42.78-33.15,59.72-13.82,11.92-30.96,20.27-50.4,25.77-16.9,4.79-34.3,7.41-52.39,6.84h-.49c-23.75-.76-47.5-1.75-71.26-2.25-25.15-.52-50.33-.69-75.5-.78-12.72-.04-25.46.45-38.19.72-11.41.24-22.8.54-34.21.75-15.72.3-31.43.72-47.15.74-21.28.03-42.51-.96-63.54-3.76-26.25-3.49-52.46-7.24-78.75-10.59-18.82-2.39-37.68-4.71-56.62-6.32-18.33-1.55-36.78-2.52-55.2-3.1-20.99-.66-42.04-.86-63.05-.76-15.17.07-30.36.85-45.53,1.48-15.64.65-31.29,1.3-46.88,2.35-19.5,1.3-39.01,2.7-58.43,4.61-25.77,2.52-51.44,5.61-77.18,8.35-20.37,2.18-40.76,4.17-61.13,6.28-16.78,1.74-33.53,3.68-50.34,5.24-11.61,1.07-23.27,1.8-34.92,2.4-17.78.92-35.56,1.74-53.36,2.3-15.53.49-31.1.86-46.64.74-17.51-.16-35.01-.66-52.48-1.54-19.06-.95-38.08-2.33-57.08-3.79-21.61-1.65-43.19-3.53-64.77-5.44-19.44-1.71-38.83-4-58.3-5.23-17.43-1.1-35.01-1.85-52.46-1.46-19.39.44-38.72,2.35-58.07,3.63-15.26,1.02-30.5,2.08-45.76,3.11-18.53,1.27-37.06,2.53-55.58,3.8-.49.03-.99.04-1.5.04-25.79.51-51.59,1.44-77.36,1.4-16.7-.03-32.84-3.12-44.03-13.75-5.22-4.96-9.13-10.96-12.45-16.86-7.79-13.85-11.28-28.47-11.3-43.62,0-8.69-.93-17.4-.88-26.09.15-21.85.68-43.71.91-65.56.15-12.65.4-25.3-.09-37.94-.57-14.42-1.92-28.82-2.88-43.24-.71-10.72-1.53-21.43-1.97-32.16-.53-12.68-1.1-25.36-.91-38.04.26-16.89,2.23-33.8,1.61-50.65-.62-16.52-3.16-33.04-5.62-49.48-2.12-14.16-5.26-28.23-8.07-42.32-1.73-8.68-4.03-17.3-5.53-26-1.48-8.58-2.63-17.22-3.3-25.87-.99-12.51-2.15-25.05-1.84-37.54.29-11.96,2.06-23.9,3.74-35.81,1.62-11.52,3.78-22.99,6.04-34.44,3.6-18.09,7.76-36.06,19.77-52.29,9.78-13.23,22.65-24.05,39.3-32.31,14.82-7.36,30.76-12.64,47.99-14.89,13.43-1.75,27.18-2.09,40.8-3.05.04.54.05,1.07.09,1.61h-.09ZM638.54,790.3c0,.47.04.93.04,1.4,24.08-.99,48.15-1.91,72.21-2.98,7.56-.34,15.1-.99,22.62-1.67,12.74-1.16,25.45-2.43,38.17-3.68,11.26-1.1,22.53-2.15,33.77-3.34,13.2-1.39,26.38-2.88,39.54-4.37,14.48-1.64,28.95-3.34,43.43-4.96,13.02-1.46,26.01-3.07,39.08-4.23,14.55-1.29,29.17-2.15,43.75-3.18,14.58-1.03,29.15-2.15,43.75-3.01,11.85-.69,23.69-1.19,35.56-1.55,20.15-.62,40.29-1.26,60.44-1.5,12.39-.14,24.81.3,37.18.72,18.78.65,37.6,1.17,56.33,2.36,16.7,1.06,33.42,2.52,49.96,4.59,27.27,3.44,54.34,7.82,81.63,11.2,19.48,2.42,39.1,4.81,58.76,5.44,24.28.79,48.67-.16,73-.55,23.15-.37,46.27-1.07,69.4-1.48,10.44-.18,20.9-.13,31.34,0,12.89.16,25.79.34,38.68.79,17.12.61,34.23,1.68,51.37,2.21,10.51.33,21.21.89,31.54-.2,21.96-2.32,42.44-8.1,60.9-18.04,21.14-11.37,35.69-26.55,44.52-44.99,6.39-13.33,9.33-27.35,11.66-41.42,2.9-17.42,7.14-34.79,8.42-52.27,1.13-15.52-.46-31.21-1.86-46.78-.97-10.5-3.65-20.94-5.68-31.38-2.72-13.98-5.22-27.99-8.38-41.9-4.2-18.49-7.34-37.08-7.45-55.85-.13-22.18.75-44.37.82-66.55.04-14.48-.44-28.96-.99-43.44-.31-8.03-1.31-16.04-1.88-24.07-1.08-15.56-2.65-31.13-2.88-46.71-.31-19.61.62-39.23.79-58.85.05-6.9-.33-13.82-1.02-20.7-.49-4.79-1.52-9.6-2.98-14.26-1.11-3.58-3.23-6.97-4.98-10.42-6.99-13.74-17.05-26.01-30.5-36.43-9.69-7.51-19.44-15.11-30.19-21.66-10.82-6.59-22.58-12.38-34.59-17.63-6.43-2.81-14.11-4.16-21.43-5.4-13.29-2.25-26.52-4.59-40.51-3.17-17.93,1.84-36.03,2.76-54.07,3.99-19.35,1.33-38.68,3.01-58.07,3.75-16.63.62-33.35.54-49.98.03-18.09-.55-36.18-1.74-54.21-3.03-14.07-1-28.09-2.57-42.13-3.92-18.27-1.75-36.53-3.73-54.84-5.22-16.37-1.33-32.8-2.29-49.23-3.08-15.99-.76-32-1.57-48.01-1.5-25.14.1-50.25.75-75.37,1.5-12.5.37-24.99,1.22-37.42,2.26-21.9,1.87-43.77,3.92-65.62,6.15-23.47,2.39-46.88,5.15-70.33,7.62-25.41,2.69-50.84,5.43-76.3,7.76-20.43,1.87-40.93,3.29-61.42,4.59-16.59,1.05-33.24,1.72-49.87,2.33-18.14.66-36.31,1.31-54.47,1.5-13.89.14-27.78-.27-41.66-.72-19.62-.62-39.25-1.26-58.81-2.37-13.6-.76-27.13-2.28-40.67-3.6-3.65-.37-5.59-.08-5.42,3.34.51,10.49.75,20.99,1.06,31.49.35,11.92.68,23.82,1,35.74.33,11.52.68,23.06.99,34.58.35,12.17.66,24.33,1,36.5.33,11.39.68,22.79.99,34.19.35,12.17.66,24.33,1,36.5.31,11.27.68,22.53.99,33.8.35,12.3.66,24.6,1,36.88.31,11.27.68,22.53.99,33.8.35,12.17.66,24.33,1,36.5.33,11.52.68,23.06.99,34.58.35,12.17.66,24.33,1,36.5.31,11.14.68,22.28.99,33.42.35,12.3.66,24.6,1,36.88.31,11.39.66,22.79.99,34.19.35,12.04.66,24.07,1,36.12.33,11.65.71,23.31.99,34.96.38,16.54.66,33.06,1.02,49.6.29,13.06.73,26.14.93,39.2.04,2.35.99,3.12,4.02,3.11,13.89-.1,27.78-.04,41.67-.04l-.05.03ZM583.52,789.82c-.24-1.53-.51-2.66-.55-3.8-.37-11.78-.68-23.56-1.02-35.34-.33-11.65-.68-23.31-.99-34.96-.33-12.04-.66-24.07-1-36.12-.33-11.52-.68-23.06-.99-34.58-.35-12.93-.64-25.87-1-38.8-.29-10.63-.68-21.25-.99-31.88-.35-12.04-.66-24.07-1-36.12-.33-11.39-.68-22.79-.99-34.19-.35-13.06-.64-26.14-1-39.2-.29-10.5-.68-20.99-.99-31.49-.37-12.3-.66-24.6-1-36.88-.31-11.39-.68-22.79-.99-34.19-.35-12.17-.66-24.33-1-36.5-.33-11.52-.66-23.06-.99-34.58-.33-11.92-.66-23.82-1-35.74-.33-11.52-.68-23.06-.99-34.58-.33-11.92-.66-23.82-1-35.74-.33-11.65-.71-23.31-.99-34.96-.38-16.27-.82-32.56-.89-48.83,0-3.52-1.39-4.85-5.84-5.44-22.38-2.97-44.65-6.47-67.07-9.22-19.97-2.43-40.03-5.13-60.17-5.84-24.28-.86-48.67.14-73,.54-22.8.37-45.6,1.27-68.42,1.43-20.19.14-40.38-.38-60.59-.71-8.91-.14-17.83-.47-26.74-.78-5.28-.18-10.53-.47-15.79-.81-18.24-1.17-36.45-2.3-54.73,0-25.17,3.19-47.9,10.66-67.25,23.54-22.58,15.04-35.81,34.53-40.76,57.01-5.49,24.96-10.73,50.04-13.64,75.23-1.81,15.68.4,31.71,1.83,47.52.95,10.52,3.61,20.94,5.64,31.38,2.68,13.85,5.17,27.73,8.32,41.52,4.31,18.87,7.45,37.84,7.5,57.01.07,19.62-.78,39.23-.84,58.85-.04,14.73.53,29.47.93,44.2.22,8.31.6,16.62,1,24.95.26,5.48.64,10.98,1.02,16.47.97,13.64,2.57,27.28,2.79,40.92.29,17.56-.66,35.11-.8,52.68-.16,20.29-.11,40.58,0,60.87.02,4.33.51,8.68,1.2,12.98,1.88,11.75,6.53,22.84,12.41,33.77,9.05,16.82,26.58,25.77,49.18,26.04,18.97.23,37.97-.9,56.97-1.37,5.64-.14,11.3.18,16.9-.13,15.42-.88,30.85-1.95,46.26-2.98,8.03-.54,16.08-1.07,24.11-1.7,12.1-.93,24.2-2.06,36.33-2.9,10.19-.69,20.37-1.33,30.59-1.57,17.94-.42,35.91-.93,53.85-.68,16.14.23,32.27,1.22,48.37,2.29,11.63.78,23.16,2.21,34.76,3.39,11.08,1.13,22.14,2.43,33.24,3.45,10.46.96,20.96,1.7,31.43,2.46,13.93,1.02,27.86,2.09,41.78,2.93,9.36.57,18.77.75,28.49,1.1l.05.04Z"/>
</svg>